<svg xmlns="http://www.w3.org/2000/svg" viewBox="0 0 512 512" fill="none">
  <defs>
    <linearGradient id="headsetGradient" x1="0" y1="0" x2="1" y2="1">
      <stop offset="0%" stop-color="#f700ff" />
      <stop offset="100%" stop-color="#8a00cc" />
    </linearGradient>
  </defs>
  <path d="M256 32C132.5 32 32 132.5 32 256v88c0 44.2 35.8 80 80 80h32c17.7 0 32-14.3 32-32v-96c0-17.7-14.3-32-32-32H96c-17.7 0-32 14.3-32 32v88c0 17.7 14.3 32 32 32h32c-17.7 0-32-14.3-32-32v-88c0-106 86-192 192-192s192 86 192 192v88c0 17.7-14.3 32-32 32h32c17.7 0 32-14.3 32-32v-88c0-123.5-100.5-224-224-224zm-160 264h32v96c0 53-43 96-96 96v-96c0-53 43-96 96-96zm320 0c53 0 96 43 96 96v96c-53 0-96-43-96-96v-96z" fill="url(#headsetGradient)" />
  <path d="M176 224v96c0 44.2 35.8 80 80 80h96c44.2 0 80-35.8 80-80v-96c0-88.4-71.6-160-160-160S176 135.6 176 224z" fill="none" stroke="#8a00cc" stroke-width="32" />
  <path d="M176 224H96c-35.3 0-64 28.7-64 64v32c0 35.3 28.7 64 64 64h80" fill="none" stroke="#8a00cc" stroke-width="32" stroke-linecap="round" stroke-linejoin="round" />
  <path d="M336 224h80c35.3 0 64 28.7 64 64v32c0 35.3-28.7 64-64 64h-80" fill="none" stroke="#8a00cc" stroke-width="32" stroke-linecap="round" stroke-linejoin="round" />
</svg>
